<svg xmlns="http://www.w3.org/2000/svg" viewBox="0 0 64 64" fill="none">
  <defs>
    <linearGradient id="frame" x1="8" y1="14" x2="56" y2="50" gradientUnits="userSpaceOnUse">
      <stop stop-color="#24C2FF" />
      <stop offset="1" stop-color="#8A38FF" />
    </linearGradient>
    <linearGradient id="panel" x1="16" y1="16" x2="50" y2="52" gradientUnits="userSpaceOnUse">
      <stop stop-color="#103A8C" />
      <stop offset="1" stop-color="#2E0D67" />
    </linearGradient>
    <filter id="glow" x="14" y="10" width="36" height="44" color-interpolation-filters="sRGB">
      <feGaussianBlur stdDeviation="2.5" />
    </filter>
  </defs>

  <path
    d="M32 5 58 15v18c0 12.7-8.3 21.7-26 26C14.3 54.7 6 45.7 6 33V15L32 5Z"
    fill="url(#frame)"
  />
  <path
    d="M32 10.5 53 18.3v14.2c0 10.2-6.8 17.7-21 21.5C17.8 50.2 11 42.7 11 32.5V18.3L32 10.5Z"
    fill="url(#panel)"
  />

  <path
    d="M24 18h6.5L26.8 28H39l-10.2 18 2.5-11H23l1-4.5"
    fill="#8EE8FF"
    filter="url(#glow)"
    opacity=".85"
  />
  <path
    d="M25 17h7l-4.1 11H40l-12.8 19 3.1-12H22.7L25 17Z"
    fill="#F8FCFF"
  />
</svg>
